<svg width="464" height="160" viewBox="0 0 464 160" fill="none" xmlns="http://www.w3.org/2000/svg">
<path d="M136.568 23.4315C121.459 8.32126 101.369 0 80 0V9.41177C118.922 9.41177 150.588 41.0776 150.588 80C150.588 118.922 118.922 150.588 80 150.588C41.0776 150.588 9.41177 118.922 9.41177 80C9.41177 64.4179 14.5785 49.2888 24.0226 37.0049C25.3537 37.4218 26.7686 37.6471 28.2353 37.6471C36.0195 37.6471 42.3529 31.3136 42.3529 23.5294C42.3529 15.7453 36.0195 9.41177 28.2353 9.41177C20.4511 9.41177 14.1176 15.7453 14.1176 23.5294C14.1176 26.4235 14.9942 29.1159 16.4938 31.3575C5.83184 45.2665 0 62.378 0 80C0 101.369 8.32126 121.459 23.4315 136.568C38.5412 151.679 58.6312 160 80 160C101.369 160 121.459 151.679 136.568 136.568C151.679 121.459 160 101.369 160 80C160 58.6312 151.679 38.5412 136.568 23.4315Z" fill="#0B9184" style="mix-blend-mode:multiply"/>
<path d="M18.8236 80.0001C18.8236 95.569 31.49 108.235 47.0589 108.235C53.729 108.235 61.7334 103.998 71.5307 95.2804C74.9089 92.2746 77.8614 89.2885 80.0001 87.0178C82.1387 89.2885 85.0912 92.2746 88.4694 95.2804C98.2667 103.998 106.271 108.235 112.941 108.235C128.51 108.235 141.177 95.569 141.177 80.0001C141.177 64.4311 128.51 51.7648 112.941 51.7648C106.271 51.7648 98.2667 56.0026 88.4694 64.7198C85.0912 67.7256 82.1387 70.7116 80.0001 72.9823C77.8614 70.7116 74.9086 67.7256 71.5307 64.7198C61.7334 56.0026 53.729 51.7648 47.0589 51.7648C31.49 51.7648 18.8236 64.4311 18.8236 80.0001ZM112.941 61.1765C123.321 61.1765 131.765 69.6208 131.765 80.0001C131.765 90.3794 123.321 98.8236 112.941 98.8236C105.973 98.8236 93.9317 88.2824 86.289 80.0001C93.9326 71.7171 105.973 61.1765 112.941 61.1765ZM47.0589 61.1765C54.0283 61.1765 66.0704 71.7193 73.7127 80.0019C66.0779 88.2843 54.0434 98.8236 47.0589 98.8236C36.6796 98.8236 28.2354 90.3794 28.2354 80.0001C28.2354 69.6208 36.6796 61.1765 47.0589 61.1765Z" fill="#0B9184" style="mix-blend-mode:multiply"/>
<path d="M196.605 110V48.125H217.84V56.3164H206.027V72.7695H216.996V80.9961H206.027V110H196.605ZM224.73 110V47.5977H234.012V110H224.73ZM255.844 103.109C257.297 103.109 258.281 102.477 258.797 101.211C259.336 99.9219 259.605 98.0117 259.605 95.4805V71.8906C259.605 69.3125 259.336 67.3789 258.797 66.0898C258.258 64.8008 257.262 64.1562 255.809 64.1562C254.355 64.1562 253.359 64.8008 252.82 66.0898C252.281 67.3555 252.012 69.2891 252.012 71.8906V95.4805C252.012 99.3477 252.645 101.715 253.91 102.582C254.426 102.934 255.07 103.109 255.844 103.109ZM255.844 110.633C250.875 110.633 247.43 109.145 245.508 106.168C243.586 103.191 242.625 98.8906 242.625 93.2656V73.543C242.625 62.2695 247.02 56.6328 255.809 56.6328C264.598 56.6328 268.992 62.2695 268.992 73.543V93.2656C268.992 102.055 266.73 107.457 262.207 109.473C260.473 110.246 258.352 110.633 255.844 110.633ZM300.387 110L295.043 70.3789L289.348 110H281.473L274.406 57.2656H282.246L284.918 79.5195L286.113 90.8398H286.324L287.484 79.4844L290.613 57.2656H298.91L302.355 79.0625L303.832 90.8398H304.043L305.062 79.0977L307.418 57.2656H315.223L308.543 110H300.387ZM337.617 110V56.2812H330.375V48.125H353.965V56.2812H347.004V110H337.617ZM359.344 110V57.2656H368.66V110H359.344ZM359.238 52.4141V44.3281H368.625V52.4141H359.238ZM412.641 110V69.5C412.641 66.0078 411.457 64.2617 409.09 64.2617C407.66 64.2617 406.559 64.7539 405.785 65.7383C405.012 66.7227 404.625 68.1406 404.625 69.9922V110H395.309V69.4297C395.309 65.9844 394.16 64.2617 391.863 64.2617C390.34 64.2617 389.191 64.8477 388.418 66.0195C387.668 67.168 387.293 68.6562 387.293 70.4844V110H377.977V57.2656H387.293V62.9961C387.832 61.0273 388.805 59.4805 390.211 58.3555C391.617 57.207 393.457 56.6328 395.73 56.6328C399.621 56.6328 402.223 58.4023 403.535 61.9414C405.434 58.4023 408.422 56.6328 412.5 56.6328C415.805 56.6328 418.195 57.7344 419.672 59.9375C421.172 62.1406 421.922 65.3633 421.922 69.6055V110H412.641ZM443.227 110.633C437.297 110.633 433.477 108.371 431.766 103.848C430.688 100.965 430.148 97.168 430.148 92.457V72.8047C430.148 62.0234 434.637 56.6328 443.613 56.6328C448.395 56.6328 451.699 58.0508 453.527 60.8867C455.379 63.7227 456.305 67.7539 456.305 72.9805V84.2656H439.535V94.6367C439.535 98.293 439.852 100.625 440.484 101.633C441.117 102.617 442.066 103.109 443.332 103.109C444.598 103.109 445.418 102.816 445.793 102.23C446.426 101.199 446.789 100.145 446.883 99.0664C446.977 97.9883 447.023 96.5117 447.023 94.6367V89.9961H456.234V92.8086C456.234 97.5898 455.859 101.023 455.109 103.109C454.359 105.195 453.492 106.707 452.508 107.645C450.445 109.637 447.352 110.633 443.227 110.633ZM439.5 78.8164H447.023V72.0664C447.023 69.1836 446.789 67.1211 446.32 65.8789C445.875 64.6133 444.949 63.9805 443.543 63.9805C443.52 63.9805 443.508 63.9805 443.508 63.9805C441.07 63.9805 439.758 65.8438 439.57 69.5703C439.523 70.2734 439.5 71.1875 439.5 72.3125V78.8164Z" fill="#0B9184"/>
</svg>
